<svg width="37" height="17" viewBox="0 0 37 17" fill="none" xmlns="http://www.w3.org/2000/svg">
<path d="M13.148 4.06C13.3 4.06 13.596 4.224 14.036 4.552C14.484 4.872 14.708 5.112 14.708 5.272C14.708 5.552 14.8 6.012 14.984 6.652C15.168 7.292 15.38 7.872 15.62 8.392C15.86 8.112 16.264 7.596 16.832 6.844C17.408 6.084 17.892 5.484 18.284 5.044C18.676 4.604 18.968 4.384 19.16 4.384C19.352 4.384 19.552 4.492 19.76 4.708C19.968 4.924 20.072 5.14 20.072 5.356C20.072 5.572 20.04 5.852 19.976 6.196C19.912 6.532 19.84 6.848 19.76 7.144C19.688 7.432 19.58 7.828 19.436 8.332C19.3 8.836 19.192 9.236 19.112 9.532C19.04 9.82 18.964 10.132 18.884 10.468C18.804 10.796 18.74 11.056 18.692 11.248C18.652 11.432 18.604 11.628 18.548 11.836C18.5 12.036 18.456 12.192 18.416 12.304C18.376 12.408 18.332 12.504 18.284 12.592C18.196 12.76 18.072 12.844 17.912 12.844C17.752 12.844 17.592 12.688 17.432 12.376C17.28 12.056 17.204 11.724 17.204 11.38C17.204 10.532 17.448 9.408 17.936 8.008C17.8 8.184 17.604 8.444 17.348 8.788C17.092 9.124 16.9 9.372 16.772 9.532C16.652 9.684 16.5 9.864 16.316 10.072C15.988 10.432 15.668 10.612 15.356 10.612C14.94 10.612 14.644 10.448 14.468 10.12C14.38 9.952 14.26 9.576 14.108 8.992C13.964 8.4 13.86 7.992 13.796 7.768C13.692 8.592 13.552 9.34 13.376 10.012C13.2 10.684 13.084 11.124 13.028 11.332C12.972 11.54 12.896 11.792 12.8 12.088C12.64 12.592 12.496 12.844 12.368 12.844C12.224 12.844 12.024 12.656 11.768 12.28C11.52 11.896 11.396 11.596 11.396 11.38C11.396 11.164 11.628 10.084 12.092 8.14C12.564 6.196 12.8 4.968 12.8 4.456C12.8 4.192 12.916 4.06 13.148 4.06ZM21.5463 5.164C21.5463 4.956 21.6383 4.744 21.8223 4.528C22.0143 4.304 22.1983 4.192 22.3743 4.192C22.5583 4.192 22.7743 4.408 23.0223 4.84C23.2703 5.272 23.3943 5.588 23.3943 5.788C23.3943 5.98 23.3303 6.128 23.2023 6.232C23.0743 6.336 22.9423 6.388 22.8063 6.388C22.5743 6.388 22.3063 6.236 22.0023 5.932C21.6983 5.628 21.5463 5.372 21.5463 5.164ZM21.7263 6.664C22.0063 6.664 22.2543 6.824 22.4703 7.144C22.6943 7.464 22.8063 7.772 22.8063 8.068C22.8063 8.22 22.6663 8.768 22.3863 9.712C22.1143 10.648 21.8423 11.536 21.5703 12.376C21.4743 12.688 21.2783 12.844 20.9823 12.844C20.8063 12.844 20.6503 12.78 20.5143 12.652C20.3863 12.516 20.3223 12.344 20.3223 12.136C20.3223 11.92 20.4223 11.392 20.6223 10.552C20.8303 9.704 20.9863 8.984 21.0903 8.392C21.2023 7.792 21.3023 7.356 21.3903 7.084C21.4863 6.804 21.5983 6.664 21.7263 6.664ZM27.3155 6.676C27.6195 6.676 27.9195 6.856 28.2155 7.216C28.5115 7.576 28.6595 7.9 28.6595 8.188C28.6595 8.38 28.5755 8.476 28.4075 8.476C28.3115 8.476 28.1715 8.44 27.9875 8.368C27.8035 8.288 27.6155 8.248 27.4235 8.248C27.2395 8.248 26.9635 8.312 26.5955 8.44C26.2355 8.568 26.0555 8.736 26.0555 8.944C26.0555 9.024 26.1635 9.14 26.3795 9.292C26.5955 9.444 26.8315 9.6 27.0875 9.76C27.3435 9.92 27.5795 10.144 27.7955 10.432C28.0115 10.712 28.1195 11.02 28.1195 11.356C28.1195 11.684 27.8755 12.016 27.3875 12.352C26.9075 12.688 26.3395 12.856 25.6835 12.856C25.0355 12.856 24.4795 12.708 24.0155 12.412C23.5515 12.116 23.3195 11.812 23.3195 11.5C23.3195 11.188 23.4475 11.032 23.7035 11.032C23.8075 11.032 23.9315 11.072 24.0755 11.152C24.4755 11.384 24.9715 11.5 25.5635 11.5C26.1635 11.5 26.4635 11.42 26.4635 11.26C26.4635 11.1 26.3475 10.924 26.1155 10.732C25.8915 10.532 25.6435 10.348 25.3715 10.18C25.1075 10.012 24.8595 9.808 24.6275 9.568C24.4035 9.32 24.2915 9.08 24.2915 8.848C24.2915 8.416 24.6835 7.948 25.4675 7.444C26.2515 6.932 26.8675 6.676 27.3155 6.676ZM34.4651 8.908C34.4651 9.3 34.1971 9.652 33.6611 9.964C33.1331 10.276 32.5891 10.432 32.0291 10.432C31.4691 10.432 31.0091 10.392 30.6491 10.312C30.5771 10.528 30.5411 10.744 30.5411 10.96C30.5411 11.176 30.5771 11.332 30.6491 11.428C30.7211 11.516 30.9011 11.56 31.1891 11.56C31.7891 11.56 32.3011 11.504 32.7251 11.392C33.1571 11.28 33.3811 11.224 33.3971 11.224C33.7251 11.224 33.8891 11.332 33.8891 11.548C33.8891 11.86 33.6291 12.156 33.1091 12.436C32.5971 12.716 32.0011 12.856 31.3211 12.856C30.6491 12.856 30.1091 12.644 29.7011 12.22C29.2931 11.796 29.0891 11.296 29.0891 10.72C29.0891 10.136 29.2571 9.528 29.5931 8.896C29.9371 8.264 30.3651 7.736 30.8771 7.312C31.3891 6.88 31.8971 6.664 32.4011 6.664C32.9131 6.664 33.3851 6.916 33.8171 7.42C34.2491 7.916 34.4651 8.412 34.4651 8.908ZM33.0731 8.716C33.0731 8.636 32.9891 8.52 32.8211 8.368C32.6531 8.216 32.4931 8.14 32.3411 8.14C32.1971 8.14 32.0091 8.248 31.7771 8.464C31.5451 8.672 31.3251 8.944 31.1171 9.28C31.1891 9.288 31.2931 9.292 31.4291 9.292C32.5251 9.292 33.0731 9.1 33.0731 8.716Z" fill="#0078FC"/>
<g filter="url(#filter0_i_2_4)">
<path d="M3.58594 7.65652C3.58594 7.58193 3.61557 7.5104 3.66831 7.45765C3.72106 7.40491 3.7926 7.37527 3.86719 7.37527H7.53187C7.60647 7.37527 7.678 7.40491 7.73075 7.45765C7.78349 7.5104 7.81313 7.58193 7.81313 7.65652V11.6292C7.81313 11.7038 7.78349 11.7753 7.73075 11.8281C7.678 11.8808 7.60647 11.9104 7.53187 11.9104H3.86719C3.7926 11.9104 3.72106 11.8808 3.66831 11.8281C3.61557 11.7753 3.58594 11.7038 3.58594 11.6292V7.65652Z" fill="url(#paint0_linear_2_4)"/>
<path d="M3.58594 7.65652C3.58594 7.58193 3.61557 7.5104 3.66831 7.45765C3.72106 7.40491 3.7926 7.37527 3.86719 7.37527H7.53187C7.60647 7.37527 7.678 7.40491 7.73075 7.45765C7.78349 7.5104 7.81313 7.58193 7.81313 7.65652V11.6292C7.81313 11.7038 7.78349 11.7753 7.73075 11.8281C7.678 11.8808 7.60647 11.9104 7.53187 11.9104H3.86719C3.7926 11.9104 3.72106 11.8808 3.66831 11.8281C3.61557 11.7753 3.58594 11.7038 3.58594 11.6292V7.65652Z" fill="url(#paint1_radial_2_4)"/>
</g>
<g filter="url(#filter1_f_2_4)">
<path d="M4.35037 8.21481C4.35037 8.17751 4.33556 8.14174 4.30918 8.11537C4.28281 8.089 4.24704 8.07418 4.20975 8.07418C4.17245 8.07418 4.13668 8.089 4.11031 8.11537C4.08394 8.14174 4.06912 8.17751 4.06912 8.21481H4.35037ZM6.97837 8.01709C6.97837 7.97979 6.96356 7.94403 6.93718 7.91765C6.91081 7.89128 6.87504 7.87646 6.83775 7.87646C6.80045 7.87646 6.76468 7.89128 6.73831 7.91765C6.71194 7.94403 6.69712 7.97979 6.69712 8.01709H6.97837ZM4.35037 8.81668V8.21481H4.06912V8.81668H4.35037ZM6.69712 8.01709V8.81668H6.97837V8.01709H6.69712ZM5.52375 10.0823C4.89094 10.0823 4.35037 9.52431 4.35037 8.81668H4.06912C4.06912 9.6624 4.71881 10.3636 5.52375 10.3636V10.0823ZM5.52375 10.3636C6.32869 10.3636 6.97837 9.6624 6.97837 8.81668H6.69712C6.69712 9.52431 6.15656 10.0823 5.52375 10.0823V10.3636Z" fill="#F19A39"/>
</g>
<g filter="url(#filter2_i_2_4)">
<path d="M4.5 8.03876C4.5 8.00146 4.48518 7.96569 4.45881 7.93932C4.43244 7.91295 4.39667 7.89813 4.35938 7.89813C4.32208 7.89813 4.28631 7.91295 4.25994 7.93932C4.23357 7.96569 4.21875 8.00146 4.21875 8.03876H4.5ZM7.12772 8.03876C7.12772 8.00146 7.1129 7.96569 7.08653 7.93932C7.06016 7.91295 7.02439 7.89813 6.98709 7.89813C6.9498 7.89813 6.91403 7.91295 6.88766 7.93932C6.86128 7.96569 6.84647 8.00146 6.84647 8.03876H7.12772ZM4.5 8.64091V8.03904H4.21875V8.64091H4.5ZM6.84647 8.03904V8.64091H7.12772V8.03904H6.84647ZM5.67309 9.90654C5.04028 9.90654 4.5 9.34854 4.5 8.64091H4.21875C4.21875 9.48663 4.86844 10.1878 5.67337 10.1878L5.67309 9.90654ZM5.67337 10.1878C6.47859 10.1878 7.12772 9.48663 7.12772 8.64091H6.84647C6.84647 9.34854 6.30619 9.90654 5.67309 9.90654L5.67337 10.1878Z" fill="#E45A3B"/>
</g>
<g filter="url(#filter3_f_2_4)">
<path d="M4.44263 8.03876C4.44263 8.02943 4.43892 8.02049 4.43233 8.0139C4.42574 8.0073 4.41679 8.0036 4.40747 8.0036C4.39815 8.0036 4.3892 8.0073 4.38261 8.0139C4.37602 8.02049 4.37231 8.02943 4.37231 8.03876H4.44263ZM7.07063 8.03876C7.07063 8.02943 7.06692 8.02049 7.06033 8.0139C7.05374 8.0073 7.04479 8.0036 7.03547 8.0036C7.02615 8.0036 7.0172 8.0073 7.01061 8.0139C7.00402 8.02049 7.00031 8.02943 7.00031 8.03876H7.07063ZM4.44263 8.64091V8.03904H4.37231V8.64091H4.44263ZM7.00031 8.03904V8.64091H7.07063V8.03904H7.00031ZM5.72147 10.012C5.02397 10.012 4.44263 9.40029 4.44263 8.64091H4.37231C4.37231 9.43488 4.98094 10.0823 5.72147 10.0823V10.012ZM5.72147 10.0823C6.462 10.0823 7.07063 9.43488 7.07063 8.64091H7.00031C7.00031 9.40029 6.41897 10.012 5.72147 10.012V10.0823Z" fill="url(#paint2_linear_2_4)"/>
<path d="M4.44263 8.03876C4.44263 8.02943 4.43892 8.02049 4.43233 8.0139C4.42574 8.0073 4.41679 8.0036 4.40747 8.0036C4.39815 8.0036 4.3892 8.0073 4.38261 8.0139C4.37602 8.02049 4.37231 8.02943 4.37231 8.03876H4.44263ZM7.07063 8.03876C7.07063 8.02943 7.06692 8.02049 7.06033 8.0139C7.05374 8.0073 7.04479 8.0036 7.03547 8.0036C7.02615 8.0036 7.0172 8.0073 7.01061 8.0139C7.00402 8.02049 7.00031 8.02943 7.00031 8.03876H7.07063ZM4.44263 8.64091V8.03904H4.37231V8.64091H4.44263ZM7.00031 8.03904V8.64091H7.07063V8.03904H7.00031ZM5.72147 10.012C5.02397 10.012 4.44263 9.40029 4.44263 8.64091H4.37231C4.37231 9.43488 4.98094 10.0823 5.72147 10.0823V10.012ZM5.72147 10.0823C6.462 10.0823 7.07063 9.43488 7.07063 8.64091H7.00031C7.00031 9.40029 6.41897 10.012 5.72147 10.012V10.0823Z" fill="url(#paint3_linear_2_4)"/>
</g>
<path d="M4.74609 5.66162H0.28125C0.12592 5.66162 0 5.78754 0 5.94287V11.0318C0 11.1871 0.12592 11.3131 0.28125 11.3131H4.74609C4.90142 11.3131 5.02734 11.1871 5.02734 11.0318V5.94287C5.02734 5.78754 4.90142 5.66162 4.74609 5.66162Z" fill="url(#paint4_linear_2_4)"/>
<path d="M4.74609 5.66162H0.28125C0.12592 5.66162 0 5.78754 0 5.94287V11.0318C0 11.1871 0.12592 11.3131 0.28125 11.3131H4.74609C4.90142 11.3131 5.02734 11.1871 5.02734 11.0318V5.94287C5.02734 5.78754 4.90142 5.66162 4.74609 5.66162Z" fill="url(#paint5_linear_2_4)"/>
<path d="M4.74609 5.66162H0.28125C0.12592 5.66162 0 5.78754 0 5.94287V11.0318C0 11.1871 0.12592 11.3131 0.28125 11.3131H4.74609C4.90142 11.3131 5.02734 11.1871 5.02734 11.0318V5.94287C5.02734 5.78754 4.90142 5.66162 4.74609 5.66162Z" fill="url(#paint6_linear_2_4)"/>
<path d="M4.74609 5.66162H0.28125C0.12592 5.66162 0 5.78754 0 5.94287V11.0318C0 11.1871 0.12592 11.3131 0.28125 11.3131H4.74609C4.90142 11.3131 5.02734 11.1871 5.02734 11.0318V5.94287C5.02734 5.78754 4.90142 5.66162 4.74609 5.66162Z" fill="#0078FC"/>
<g filter="url(#filter4_f_2_4)">
<path d="M4.75481 5.93387V10.8557" stroke="url(#paint7_linear_2_4)" stroke-width="0.375" stroke-linecap="round"/>
</g>
<path d="M0 8.05225V7.42787H5.02706V8.05225H0Z" fill="#3A92EA"/>
<path d="M0 8.05225V7.42787H5.02706V8.05225H0Z" fill="url(#paint8_linear_2_4)"/>
<path d="M0 8.05225V7.42787H5.02706V8.05225H0Z" fill="url(#paint9_linear_2_4)"/>
<path d="M0 8.05225V7.42787H5.02706V8.05225H0Z" fill="#0078FC"/>
<path d="M0 9.36175V8.73766H5.02706V9.36175H0Z" fill="#3A91ED"/>
<path d="M0 9.36175V8.73766H5.02706V9.36175H0Z" fill="url(#paint10_linear_2_4)"/>
<path d="M0 9.36175V8.73766H5.02706V9.36175H0Z" fill="url(#paint11_linear_2_4)"/>
<path d="M0 9.36175V8.73766H5.02706V9.36175H0Z" fill="#0078FC"/>
<path d="M0 10.6712V10.0471H5.02706V10.6712H0Z" fill="#3A8FF0"/>
<path d="M0 10.6712V10.0471H5.02706V10.6712H0Z" fill="url(#paint12_linear_2_4)"/>
<path d="M0 10.6712V10.0471H5.02706V10.6712H0Z" fill="url(#paint13_linear_2_4)"/>
<path d="M0 10.6712V10.0471H5.02706V10.6712H0Z" fill="#0078FC"/>
<g filter="url(#filter5_f_2_4)">
<path d="M7.59206 7.6329L7.59178 11.6506" stroke="url(#paint14_linear_2_4)" stroke-width="0.375" stroke-linecap="round"/>
</g>
<g filter="url(#filter6_f_2_4)">
<path d="M3.78787 5.81969V6.69859" stroke="#4EB7F5" stroke-width="0.375" stroke-linecap="round"/>
</g>
<g filter="url(#filter7_f_2_4)">
<path d="M0.957932 5.81969V6.69859" stroke="#4EB7F5" stroke-width="0.375" stroke-linecap="round"/>
</g>
<g filter="url(#filter8_i_2_4)">
<path d="M3.79237 6.54925C3.79237 6.58655 3.80718 6.62231 3.83356 6.64869C3.85993 6.67506 3.8957 6.68988 3.93299 6.68988C3.97029 6.68988 4.00606 6.67506 4.03243 6.64869C4.0588 6.62231 4.07362 6.58655 4.07362 6.54925H3.79237ZM0.95343 6.54925C0.95343 6.58655 0.968246 6.62231 0.994618 6.64869C1.02099 6.67506 1.05676 6.68988 1.09406 6.68988C1.13135 6.68988 1.16712 6.67506 1.19349 6.64869C1.21986 6.62231 1.23468 6.58655 1.23468 6.54925H0.95343ZM3.79237 5.54688V6.54925H4.07362V5.54688H3.79237ZM1.23468 6.54925V5.54688H0.95343V6.54925H1.23468ZM2.51352 4.28125C3.2144 4.28125 3.79237 4.84966 3.79237 5.54688H4.07362C4.07362 4.69103 3.36627 4 2.51352 4V4.28125ZM2.51352 4C1.66106 4 0.95343 4.69103 0.95343 5.54688H1.23468C1.23468 4.84966 1.81293 4.28125 2.51352 4.28125V4Z" fill="url(#paint15_radial_2_4)"/>
</g>
<g filter="url(#filter9_f_2_4)">
<path d="M3.94622 6.54924C3.94622 6.55857 3.94992 6.56751 3.95652 6.5741C3.96311 6.5807 3.97205 6.5844 3.98137 6.5844C3.9907 6.5844 3.99964 6.5807 4.00623 6.5741C4.01283 6.56751 4.01653 6.55857 4.01653 6.54924H3.94622ZM1.05891 6.54924C1.05891 6.55857 1.06261 6.56751 1.0692 6.5741C1.0758 6.5807 1.08474 6.5844 1.09406 6.5844C1.10339 6.5844 1.11233 6.5807 1.11892 6.5741C1.12551 6.56751 1.12922 6.55857 1.12922 6.54924H1.05891ZM3.94622 5.54687V6.54924H4.01653V5.54687H3.94622ZM1.12922 6.54924L1.12894 5.54687H1.05862V6.54896L1.12922 6.54924ZM2.53744 4.17606C3.30891 4.17606 3.94594 4.79087 3.94594 5.54715H4.01625C4.01625 4.75009 3.34575 4.10574 2.53744 4.10574V4.17606ZM2.53744 4.10574C1.72912 4.10574 1.05862 4.74981 1.05862 5.54687H1.12894C1.12894 4.79059 1.76597 4.17606 2.53744 4.17606V4.10574Z" fill="url(#paint16_linear_2_4)"/>
<path d="M3.94622 6.54924C3.94622 6.55857 3.94992 6.56751 3.95652 6.5741C3.96311 6.5807 3.97205 6.5844 3.98137 6.5844C3.9907 6.5844 3.99964 6.5807 4.00623 6.5741C4.01283 6.56751 4.01653 6.55857 4.01653 6.54924H3.94622ZM1.05891 6.54924C1.05891 6.55857 1.06261 6.56751 1.0692 6.5741C1.0758 6.5807 1.08474 6.5844 1.09406 6.5844C1.10339 6.5844 1.11233 6.5807 1.11892 6.5741C1.12551 6.56751 1.12922 6.55857 1.12922 6.54924H1.05891ZM3.94622 5.54687V6.54924H4.01653V5.54687H3.94622ZM1.12922 6.54924L1.12894 5.54687H1.05862V6.54896L1.12922 6.54924ZM2.53744 4.17606C3.30891 4.17606 3.94594 4.79087 3.94594 5.54715H4.01625C4.01625 4.75009 3.34575 4.10574 2.53744 4.10574V4.17606ZM2.53744 4.10574C1.72912 4.10574 1.05862 4.74981 1.05862 5.54687H1.12894C1.12894 4.79059 1.76597 4.17606 2.53744 4.17606V4.10574Z" fill="url(#paint17_linear_2_4)"/>
</g>
<defs>
<filter id="filter0_i_2_4" x="3.58594" y="7.12527" width="4.47719" height="4.78516" filterUnits="userSpaceOnUse" color-interpolation-filters="sRGB">
<feFlood flood-opacity="0" result="BackgroundImageFix"/>
<feBlend mode="normal" in="SourceGraphic" in2="BackgroundImageFix" result="shape"/>
<feColorMatrix in="SourceAlpha" type="matrix" values="0 0 0 0 0 0 0 0 0 0 0 0 0 0 0 0 0 0 127 0" result="hardAlpha"/>
<feOffset dx="0.25" dy="-0.25"/>
<feGaussianBlur stdDeviation="0.25"/>
<feComposite in2="hardAlpha" operator="arithmetic" k2="-1" k3="1"/>
<feColorMatrix type="matrix" values="0 0 0 0 0.905882 0 0 0 0 0.556863 0 0 0 0 0.329412 0 0 0 1 0"/>
<feBlend mode="normal" in2="shape" result="effect1_innerShadow_2_4"/>
</filter>
<filter id="filter1_f_2_4" x="3.56912" y="7.37646" width="3.90926" height="3.48709" filterUnits="userSpaceOnUse" color-interpolation-filters="sRGB">
<feFlood flood-opacity="0" result="BackgroundImageFix"/>
<feBlend mode="normal" in="SourceGraphic" in2="BackgroundImageFix" result="shape"/>
<feGaussianBlur stdDeviation="0.25" result="effect1_foregroundBlur_2_4"/>
</filter>
<filter id="filter2_i_2_4" x="4.21875" y="7.89813" width="3.00897" height="2.28966" filterUnits="userSpaceOnUse" color-interpolation-filters="sRGB">
<feFlood flood-opacity="0" result="BackgroundImageFix"/>
<feBlend mode="normal" in="SourceGraphic" in2="BackgroundImageFix" result="shape"/>
<feColorMatrix in="SourceAlpha" type="matrix" values="0 0 0 0 0 0 0 0 0 0 0 0 0 0 0 0 0 0 127 0" result="hardAlpha"/>
<feOffset dx="0.1"/>
<feGaussianBlur stdDeviation="0.1"/>
<feComposite in2="hardAlpha" operator="arithmetic" k2="-1" k3="1"/>
<feColorMatrix type="matrix" values="0 0 0 0 0.862745 0 0 0 0 0.321569 0 0 0 0 0.109804 0 0 0 1 0"/>
<feBlend mode="normal" in2="shape" result="effect1_innerShadow_2_4"/>
</filter>
<filter id="filter3_f_2_4" x="4.29731" y="7.9286" width="2.84832" height="2.22872" filterUnits="userSpaceOnUse" color-interpolation-filters="sRGB">
<feFlood flood-opacity="0" result="BackgroundImageFix"/>
<feBlend mode="normal" in="SourceGraphic" in2="BackgroundImageFix" result="shape"/>
<feGaussianBlur stdDeviation="0.0375" result="effect1_foregroundBlur_2_4"/>
</filter>
<filter id="filter4_f_2_4" x="4.19231" y="5.37137" width="1.125" height="6.04688" filterUnits="userSpaceOnUse" color-interpolation-filters="sRGB">
<feFlood flood-opacity="0" result="BackgroundImageFix"/>
<feBlend mode="normal" in="SourceGraphic" in2="BackgroundImageFix" result="shape"/>
<feGaussianBlur stdDeviation="0.1875" result="effect1_foregroundBlur_2_4"/>
</filter>
<filter id="filter5_f_2_4" x="7.15428" y="7.1954" width="0.875275" height="4.89265" filterUnits="userSpaceOnUse" color-interpolation-filters="sRGB">
<feFlood flood-opacity="0" result="BackgroundImageFix"/>
<feBlend mode="normal" in="SourceGraphic" in2="BackgroundImageFix" result="shape"/>
<feGaussianBlur stdDeviation="0.125" result="effect1_foregroundBlur_2_4"/>
</filter>
<filter id="filter6_f_2_4" x="3.10037" y="5.13219" width="1.375" height="2.25391" filterUnits="userSpaceOnUse" color-interpolation-filters="sRGB">
<feFlood flood-opacity="0" result="BackgroundImageFix"/>
<feBlend mode="normal" in="SourceGraphic" in2="BackgroundImageFix" result="shape"/>
<feGaussianBlur stdDeviation="0.25" result="effect1_foregroundBlur_2_4"/>
</filter>
<filter id="filter7_f_2_4" x="0.270432" y="5.13219" width="1.375" height="2.25391" filterUnits="userSpaceOnUse" color-interpolation-filters="sRGB">
<feFlood flood-opacity="0" result="BackgroundImageFix"/>
<feBlend mode="normal" in="SourceGraphic" in2="BackgroundImageFix" result="shape"/>
<feGaussianBlur stdDeviation="0.25" result="effect1_foregroundBlur_2_4"/>
</filter>
<filter id="filter8_i_2_4" x="0.95343" y="3.95" width="3.12019" height="2.73988" filterUnits="userSpaceOnUse" color-interpolation-filters="sRGB">
<feFlood flood-opacity="0" result="BackgroundImageFix"/>
<feBlend mode="normal" in="SourceGraphic" in2="BackgroundImageFix" result="shape"/>
<feColorMatrix in="SourceAlpha" type="matrix" values="0 0 0 0 0 0 0 0 0 0 0 0 0 0 0 0 0 0 127 0" result="hardAlpha"/>
<feOffset dy="-0.05"/>
<feGaussianBlur stdDeviation="0.1"/>
<feComposite in2="hardAlpha" operator="arithmetic" k2="-1" k3="1"/>
<feColorMatrix type="matrix" values="0 0 0 0 0.164706 0 0 0 0 0.560784 0 0 0 0 0.886275 0 0 0 1 0"/>
<feBlend mode="normal" in2="shape" result="effect1_innerShadow_2_4"/>
</filter>
<filter id="filter9_f_2_4" x="0.933624" y="3.98074" width="3.2079" height="2.72865" filterUnits="userSpaceOnUse" color-interpolation-filters="sRGB">
<feFlood flood-opacity="0" result="BackgroundImageFix"/>
<feBlend mode="normal" in="SourceGraphic" in2="BackgroundImageFix" result="shape"/>
<feGaussianBlur stdDeviation="0.0625" result="effect1_foregroundBlur_2_4"/>
</filter>
<linearGradient id="paint0_linear_2_4" x1="4.64934" y1="8.29834" x2="6.07303" y2="10.7593" gradientUnits="userSpaceOnUse">
<stop stop-color="#FEC243"/>
<stop offset="1" stop-color="#FDB046"/>
</linearGradient>
<radialGradient id="paint1_radial_2_4" cx="0" cy="0" r="1" gradientUnits="userSpaceOnUse" gradientTransform="translate(3.83898 11.1334) rotate(52.08) scale(0.985216 1.34012)">
<stop offset="0.225" stop-color="#D38D3C"/>
<stop offset="1" stop-color="#D38D3C" stop-opacity="0"/>
</radialGradient>
<linearGradient id="paint2_linear_2_4" x1="6.76969" y1="7.93779" x2="6.76969" y2="9.7001" gradientUnits="userSpaceOnUse">
<stop stop-color="#F38362"/>
<stop offset="1" stop-color="#F38362" stop-opacity="0"/>
</linearGradient>
<linearGradient id="paint3_linear_2_4" x1="4.7461" y1="9.7001" x2="6.52135" y2="9.7001" gradientUnits="userSpaceOnUse">
<stop stop-color="#F38362"/>
<stop offset="1" stop-color="#F38362" stop-opacity="0"/>
</linearGradient>
<linearGradient id="paint4_linear_2_4" x1="2.51353" y1="5.66162" x2="2.51353" y2="11.3128" gradientUnits="userSpaceOnUse">
<stop stop-color="#59C1FA"/>
<stop offset="1" stop-color="#49A8FF"/>
</linearGradient>
<linearGradient id="paint5_linear_2_4" x1="0" y1="10.6625" x2="0.492187" y2="10.6625" gradientUnits="userSpaceOnUse">
<stop stop-color="#419CE0"/>
<stop offset="1" stop-color="#449FEE" stop-opacity="0"/>
</linearGradient>
<linearGradient id="paint6_linear_2_4" x1="2.41678" y1="11.4447" x2="2.41678" y2="10.2142" gradientUnits="userSpaceOnUse">
<stop stop-color="#4676F8"/>
<stop offset="1" stop-color="#439AFF" stop-opacity="0"/>
</linearGradient>
<linearGradient id="paint7_linear_2_4" x1="-nan" y1="-nan" x2="-nan" y2="-nan" gradientUnits="userSpaceOnUse">
<stop stop-color="#80E8FF"/>
<stop offset="0.739" stop-color="#5BB8FF"/>
<stop offset="1" stop-color="#54AFFF"/>
</linearGradient>
<linearGradient id="paint8_linear_2_4" x1="0" y1="7.85875" x2="0.518344" y2="7.85875" gradientUnits="userSpaceOnUse">
<stop offset="0.196" stop-color="#2A81CD"/>
<stop offset="1" stop-color="#2A81CD" stop-opacity="0"/>
</linearGradient>
<linearGradient id="paint9_linear_2_4" x1="5.02734" y1="7.85875" x2="4.53516" y2="7.85875" gradientUnits="userSpaceOnUse">
<stop stop-color="#51A9F3"/>
<stop offset="1" stop-color="#51A9F3" stop-opacity="0"/>
</linearGradient>
<linearGradient id="paint10_linear_2_4" x1="0" y1="9.16825" x2="0.518344" y2="9.16825" gradientUnits="userSpaceOnUse">
<stop offset="0.196" stop-color="#2A81CD"/>
<stop offset="1" stop-color="#2A81CD" stop-opacity="0"/>
</linearGradient>
<linearGradient id="paint11_linear_2_4" x1="5.02734" y1="9.16825" x2="4.53516" y2="9.16825" gradientUnits="userSpaceOnUse">
<stop stop-color="#51A9F3"/>
<stop offset="1" stop-color="#51A9F3" stop-opacity="0"/>
</linearGradient>
<linearGradient id="paint12_linear_2_4" x1="0" y1="10.478" x2="0.518344" y2="10.478" gradientUnits="userSpaceOnUse">
<stop offset="0.196" stop-color="#2A81CD"/>
<stop offset="1" stop-color="#2A81CD" stop-opacity="0"/>
</linearGradient>
<linearGradient id="paint13_linear_2_4" x1="5.02734" y1="10.478" x2="4.53516" y2="10.478" gradientUnits="userSpaceOnUse">
<stop stop-color="#51A9F3"/>
<stop offset="1" stop-color="#51A9F3" stop-opacity="0"/>
</linearGradient>
<linearGradient id="paint14_linear_2_4" x1="183742" y1="7.55584" x2="183742" y2="11.2141" gradientUnits="userSpaceOnUse">
<stop stop-color="#FFD262"/>
<stop offset="1" stop-color="#FFB84A"/>
</linearGradient>
<radialGradient id="paint15_radial_2_4" cx="0" cy="0" r="1" gradientUnits="userSpaceOnUse" gradientTransform="translate(1.81912 4.28153) rotate(72.9753) scale(2.3715 2.7956)">
<stop stop-color="#2C94E3"/>
<stop offset="1" stop-color="#2C9CEB"/>
</radialGradient>
<linearGradient id="paint16_linear_2_4" x1="2.93119" y1="6.68987" x2="2.93119" y2="5.21331" gradientUnits="userSpaceOnUse">
<stop stop-color="#53A9F2"/>
<stop offset="1" stop-color="#53A9F2" stop-opacity="0"/>
</linearGradient>
<linearGradient id="paint17_linear_2_4" x1="3.87591" y1="4.67724" x2="3.32212" y2="5.34521" gradientUnits="userSpaceOnUse">
<stop stop-color="#61B2F2"/>
<stop offset="1" stop-color="#61B2F2" stop-opacity="0"/>
</linearGradient>
</defs>
</svg>
